<svg width="580" height="400" xmlns="http://www.w3.org/2000/svg">
 <!-- Created with SVG Editor - http://github.com/mzalive/SVG Editor/ -->

 <g>
  <title>background</title>
  <rect fill="#f5f5f5" id="canvas_background" height="402" width="582" y="-1" x="-1"/>
  <g display="none" overflow="visible" y="0" x="0" height="100%" width="100%" id="canvasGrid">
   <rect fill="url(#gridpattern)" stroke-width="0" y="0" x="0" height="100%" width="100%"/>
  </g>
 </g>
 <g>
  <title>Layer 1</title>
  <g stroke="null" id="svg_10" fill="#4481c3">
   <g stroke="null" transform="matrix(0.6713317858353899,0,0,0.6713317858353899,-2578.2654886867394,-1777.3381673693625) " id="svg_5">
    <path stroke="null" id="svg_6" d="m4520.594365,2693.508361c-8.073,-1.865 -16.126,3.17 -17.989,11.243l-45.516,197.236l-12.73,0c-5.952,-8.136 -14.964,-13.894 -25.33,-15.563c-1.852,-18.383 -7.192,-35.75 -15.338,-51.436l0,-94.735c0,-8.284 -6.72,-15 -15.004,-15c-32.999,0 -64.139,12.089 -88.368,34.167c-15.594,-2.699 -32.595,-2.699 -48.189,0c-24.229,-22.078 -55.369,-34.167 -88.372,-34.167c-8.284,0 -15,6.716 -15,15l0,94.734c-8.147,15.686 -13.486,33.053 -15.338,51.436c-10.366,1.67 -19.378,7.428 -25.33,15.563l-12.73,0l-45.517,-197.235c-1.863,-8.073 -9.918,-13.108 -17.989,-11.243c-8.072,1.863 -13.105,9.917 -11.243,17.989l47.813,207.188l0,271.435c0,8.284 6.716,15 15,15l385.6,0c8.284,0 15,-6.716 15,-15l0,-271.435l47.813,-207.188c1.862,-8.072 -3.171,-16.126 -11.243,-17.989zm-107.803,222.412c5.018,0 9.1,4.083 9.1,9.1c-1.212,33.351 -49.124,33.343 -50.333,0c0,-5.017 4.082,-9.1 9.1,-9.1l32.133,0zm-39.1,-159.572l0,39.309c-11.199,-10.378 -24.047,-18.999 -38.109,-25.411c11.607,-7.166 24.522,-11.895 38.109,-13.898zm-194.934,0c13.586,2.003 26.501,6.732 38.108,13.899c-14.061,6.413 -26.909,15.034 -38.108,25.411l0,-39.31zm97.467,31.039c57.518,0 105.177,42.995 112.541,98.533l-8.108,0c-12.953,0 -24.449,6.336 -31.568,16.067l-145.73,0c-7.119,-9.731 -18.615,-16.067 -31.568,-16.067l-8.108,0c7.364,-55.538 55.023,-98.533 112.541,-98.533zm-136.567,128.533l32.134,0c5.018,0 9.1,4.083 9.1,9.1c-1.212,33.351 -49.124,33.343 -50.333,0c0,-5.018 4.082,-9.1 9.099,-9.1zm314.367,259.2l-355.6,0l0,-243.133l2.583,0c9.333,63.856 100.105,63.847 109.434,0l131.566,0c9.333,63.856 100.105,63.847 109.434,0l2.583,0l0,243.133z"/>
    <path stroke="null" id="svg_7" d="m4228.024365,2875.753361c8.279,0 15,-6.72 15,-15c-0.743,-19.874 -29.26,-19.869 -30,0c0,8.28 6.722,15 15,15z"/>
    <path stroke="null" id="svg_8" d="m4324.424365,2875.753361c8.279,0 15,-6.72 15,-15c-0.743,-19.874 -29.26,-19.869 -30,0c0,8.28 6.722,15 15,15z"/>
    <path stroke="null" id="svg_9" d="m4383.230365,3050.980361c-5.857,-5.858 -15.355,-5.858 -21.213,0l-32.133,32.133c-5.858,5.858 -5.858,15.355 0,21.213c5.857,5.858 15.355,5.858 21.213,0l6.527,-6.527l0,28.054c0.738,19.881 29.269,19.866 30,0l0,-28.053l6.527,6.527c5.858,5.859 15.357,5.857 21.213,0c5.858,-5.858 5.858,-15.355 0,-21.213l-32.134,-32.134z"/>
   </g>
  </g>
  <rect stroke="#000" id="svg_14" height="118.000007" width="223.999997" y="228" x="180.5" stroke-opacity="null" stroke-width="0" fill="#f5f5f5"/>
  <text stroke="#000" transform="matrix(4.471165180206299,0,0,4.3350043296813965,-713.3244445323944,-764.821128963893) " xml:space="preserve" text-anchor="start" font-family="Helvetica, Arial, sans-serif" font-size="24" id="svg_15" y="251" x="205.5" fill-opacity="null" stroke-opacity="null" stroke-width="0" fill="#4481c3">404</text>
 </g>
</svg>
